<?xml version="1.0" encoding="UTF-8"?>
<svg width="971px" height="273px" viewBox="0 0 971 273" version="1.1" xmlns="http://www.w3.org/2000/svg" xmlns:xlink="http://www.w3.org/1999/xlink">
    <!-- Generator: Sketch 52.4 (67378) - http://www.bohemiancoding.com/sketch -->
    <title>Logo_Dark</title>
    <desc>Created with Sketch.</desc>
    <g id="Page-1" stroke="none" stroke-width="1" fill="none" fill-rule="evenodd">
        <g id="Logo-Dark" transform="translate(-221.000000, -391.000000)">
            <g id="Logo_Dark" transform="translate(225.500000, 396.000000)">
                <g id="Group-4" transform="translate(277.000000, 9.000000)">
                    <g id="Group-3" transform="translate(0.035156, 0.684641)">
                        <g id="Group-2">
                            <g id="Group-2-Copy" transform="translate(0.500000, 0.000000)">
                                <g id="Group"></g>
                            </g>
                        </g>
                    </g>
                </g>
                <path d="M288,137.52 L288,132.4 C288,100.56 305.28,78 330.56,78 C355.68,78 372.96,100.56 372.96,132.4 L372.96,137.52 C372.96,170.96 355.68,191.92 330.56,191.92 C305.28,191.92 288,170.96 288,137.52 Z M359.36,132.88 C359.36,106.32 347.84,90.32 330.56,90.32 C313.12,90.32 301.6,106.32 301.6,132.88 L301.6,137.04 C301.6,163.6 313.12,179.6 330.56,179.6 C347.84,179.6 359.36,163.6 359.36,137.04 L359.36,132.88 Z M409.8,149.04 L380.84,109.36 L396.52,109.36 L418.28,139.6 L440.36,109.36 L454.92,109.36 L425.8,149.04 L457,190.96 L441.32,190.96 L417.32,158.16 L393.32,190.96 L378.76,190.96 L409.8,149.04 Z M459.28,78.96 L545.84,78.96 L545.84,91.76 L509.52,91.76 L509.52,190.96 L495.6,190.96 L495.6,91.76 L459.28,91.76 L459.28,78.96 Z M585.4,109.36 L589.08,109.36 L589.08,122.16 L582.52,122.16 C565.4,122.16 560.76,136.4 560.76,149.36 L560.76,190.96 L547.64,190.96 L547.64,109.36 L559,109.36 L560.76,121.68 C564.6,115.44 570.84,109.36 585.4,109.36 Z M666.56,178.96 L670.56,178.96 L670.56,190.96 L663.36,190.96 C652.48,190.96 648.8,186.32 648.64,178.32 C643.52,185.68 635.36,191.92 621.28,191.92 C603.36,191.92 591.2,182.96 591.2,168.08 C591.2,151.76 602.56,142.64 624,142.64 L648,142.64 L648,137.04 C648,126.48 640.48,120.08 627.68,120.08 C616.16,120.08 608.48,125.52 606.88,133.84 L593.76,133.84 C595.68,117.84 608.64,108.4 628.32,108.4 C649.12,108.4 661.12,118.8 661.12,137.84 L661.12,173.04 C661.12,177.04 663.2,178.96 666.56,178.96 Z M648,157.68 L648,153.68 L622.72,153.68 C611.04,153.68 604.48,158 604.48,167.28 C604.48,175.28 611.36,180.72 622.24,180.72 C638.56,180.72 648,171.28 648,157.68 Z M750.44,162.8 C747.08,180.72 733.96,191.92 714.44,191.92 C690.6,191.92 674.76,174.96 674.76,150 C674.76,125.04 690.92,108.4 714.92,108.4 C734.44,108.4 747.24,119.6 750.44,137.2 L737.16,137.2 C734.6,126.8 726.12,120.08 714.44,120.08 C698.76,120.08 688.2,132.24 688.2,150 C688.2,167.76 698.76,180.24 714.44,180.24 C726.44,180.24 734.92,173.52 737.32,162.8 L750.44,162.8 Z M762.64,78.96 L775.76,78.96 L775.76,153.2 L817.2,109.36 L832.88,109.36 L801.52,142.8 L835.12,190.96 L819.28,190.96 L792.08,152.24 L775.76,169.36 L775.76,190.96 L762.64,190.96 L762.64,78.96 Z M834.84,150.16 C834.84,125.04 850.52,108.4 873.56,108.4 C895.96,108.4 911.64,122.96 912.28,147.12 C912.28,148.88 912.12,150.8 911.96,152.72 L848.6,152.72 L848.6,153.84 C849.08,169.68 859.16,180.24 874.36,180.24 C885.88,180.24 894.84,174.16 897.56,163.6 L910.84,163.6 C907.64,179.92 894.2,191.92 875.32,191.92 C850.84,191.92 834.84,175.12 834.84,150.16 Z M849.4,141.84 L898.68,141.84 C897.4,127.76 887.32,119.92 873.72,119.92 C861.72,119.92 850.68,128.56 849.4,141.84 Z M962.08,109.36 L965.76,109.36 L965.76,122.16 L959.2,122.16 C942.08,122.16 937.44,136.4 937.44,149.36 L937.44,190.96 L924.32,190.96 L924.32,109.36 L935.68,109.36 L937.44,121.68 C941.28,115.44 947.52,109.36 962.08,109.36 Z" id="0xTracker" fill="#0A0830"></path>
                <g id="Group" transform="translate(0.742188, 0.684641)">
                    <g id="Group-11" transform="translate(0.000000, 0.244821)">
                        <polygon id="Stroke-1" stroke="#CAC9EB" stroke-width="10" points="0 57.7006478 0 172.037736 99.4994505 229.642681 198.5625 172.037736 198.5625 57.7006478 99.4994505 0.095702761"></polygon>
                        <polyline id="Stroke-3" stroke="#CAC9EB" stroke-width="10" points="0 57.7006478 99.4994505 110.06878 198.5625 57.7006478"></polyline>
                        <polygon id="Stroke-5" stroke="#CAC9EB" stroke-width="10" stroke-linejoin="round" points="0 172.037736 198.5625 172.037736 99.4994505 0.095702761"></polygon>
                        <path d="M99.484962,172.037736 L99.501462,229.642681" id="Stroke-7" stroke="#CAC9EB" stroke-width="10"></path>
                        <circle id="Oval" fill="#2832E1" cx="99.7578125" cy="227.070538" r="19"></circle>
                        <circle id="Oval" fill="#2832E1" opacity="0.168359375" cx="99.7578125" cy="227.070538" r="39.2441406"></circle>
                        <polygon id="Stroke-9" stroke="#2832E1" stroke-width="10" stroke-linejoin="round" points="99.4994505 0.095702761 50.7176629 84.3939938 99.4994505 172.037736 148.067402 84.3939938"></polygon>
                    </g>
                    <polyline id="Stroke-12" stroke="#2832E1" stroke-width="10" points="50.6225275 84.1295348 99.4994505 110.313601 147.939973 84.1295348"></polyline>
                    <polyline id="Stroke-12" stroke="#2832E1" stroke-width="10" transform="translate(99.281250, 74.221568) rotate(-180.000000) translate(-99.281250, -74.221568) " points="50.6225275 61.1295348 99.4994505 87.3136007 147.939973 61.1295348"></polyline>
                    <path d="M99.4994505,0.340523777 L99.4994505,172.282557" id="Stroke-13" stroke="#2832E1" stroke-width="10"></path>
                </g>
            </g>
        </g>
    </g>
</svg>