<?xml version="1.0" encoding="UTF-8"?>
<svg width="966px" height="273px" viewBox="0 0 966 273" version="1.1" xmlns="http://www.w3.org/2000/svg" xmlns:xlink="http://www.w3.org/1999/xlink">
    <!-- Generator: Sketch 60.1 (88133) - https://sketch.com -->
    <title>Logo Grayscale</title>
    <desc>Created with Sketch.</desc>
    <g id="Logo-Grayscale" stroke="none" stroke-width="1" fill="none" fill-rule="evenodd">
        <g id="Group" transform="translate(290.000000, 39.000000)">
            <text id="The-0x-Trade-Explore" font-family="Aeonik-Regular, Aeonik" font-size="68" font-weight="normal" fill="#7F7A97">
                <tspan x="0" y="183">The 0x Trade Explorer</tspan>
            </text>
            <path d="M0,59.2537969 L0,54.1566961 C0,22.4591004 17.222977,9.9475983e-14 42.4195546,9.9475983e-14 C67.4566601,9.9475983e-14 84.6796371,22.4591004 84.6796371,54.1566961 L84.6796371,59.2537969 C84.6796371,92.5442366 67.4566601,113.410493 42.4195546,113.410493 C17.222977,113.410493 0,92.5442366 0,59.2537969 Z M71.1245163,54.6345493 C71.1245163,28.1933388 59.6425316,12.2648988 42.4195546,12.2648988 C25.0371055,12.2648988 13.5551208,28.1933388 13.5551208,54.6345493 L13.5551208,58.7759437 C13.5551208,85.2171541 25.0371055,101.145594 42.4195546,101.145594 C59.6425316,101.145594 71.1245163,85.2171541 71.1245163,58.7759437 L71.1245163,54.6345493 Z M121.398067,70.7222737 L92.5336336,31.2197425 L108.161891,31.2197425 L129.850084,61.3244941 L151.857221,31.2197425 L166.369174,31.2197425 L137.345268,70.7222737 L168.44231,112.454787 L152.814053,112.454787 L128.893252,79.8014845 L104.97245,112.454787 L90.4604975,112.454787 L121.398067,70.7222737 Z M170.714786,0.955706402 L256.989144,0.955706402 L256.989144,13.6984584 L220.788997,13.6984584 L220.788997,112.454787 L206.914933,112.454787 L206.914933,13.6984584 L170.714786,13.6984584 L170.714786,0.955706402 Z M296.418598,31.2197425 L300.086454,31.2197425 L300.086454,43.9624945 L293.548102,43.9624945 C276.484597,43.9624945 271.859909,58.1388061 271.859909,71.0408425 L271.859909,112.454787 L258.783204,112.454787 L258.783204,31.2197425 L270.105716,31.2197425 L271.859909,43.4846413 C275.687237,37.2725497 281.906645,31.2197425 296.418598,31.2197425 Z M377.310775,100.508457 L381.297575,100.508457 L381.297575,112.454787 L374.121335,112.454787 C363.277238,112.454787 359.609382,107.835539 359.44991,99.871319 C354.346806,107.198401 346.213733,113.410493 332.180196,113.410493 C314.319331,113.410493 302.199458,104.490567 302.199458,89.6771173 C302.199458,73.4301085 313.521971,64.3508977 334.89122,64.3508977 L358.812022,64.3508977 L358.812022,58.7759437 C358.812022,48.2631733 351.316837,41.8917973 338.559077,41.8917973 C327.077092,41.8917973 319.422435,47.3074669 317.827715,55.5902557 L304.751011,55.5902557 C306.664675,39.6618157 319.581907,30.2640361 339.196965,30.2640361 C359.928326,30.2640361 371.888727,40.6175221 371.888727,59.5723657 L371.888727,94.6149338 C371.888727,98.5970438 373.961863,100.508457 377.310775,100.508457 Z M358.812022,79.3236313 L358.812022,75.3415213 L333.615444,75.3415213 C321.973988,75.3415213 315.435635,79.6422001 315.435635,88.8806953 C315.435635,96.8449154 322.292932,102.260585 333.137028,102.260585 C349.403173,102.260585 358.812022,92.8628054 358.812022,79.3236313 Z M460.913976,84.4207321 C457.565064,102.260585 444.488359,113.410493 425.032774,113.410493 C401.271444,113.410493 385.483715,96.5263466 385.483715,71.6779801 C385.483715,46.8296137 401.590388,30.2640361 425.51119,30.2640361 C444.966775,30.2640361 457.724536,41.4139441 460.913976,58.9352281 L447.677799,58.9352281 C445.126247,48.5817421 436.674231,41.8917973 425.032774,41.8917973 C409.404517,41.8917973 398.879364,53.9974117 398.879364,71.6779801 C398.879364,89.3585485 409.404517,101.782732 425.032774,101.782732 C436.993175,101.782732 445.445191,95.092787 447.837271,84.4207321 L460.913976,84.4207321 Z M473.073717,0.955706402 L486.150422,0.955706402 L486.150422,74.8636681 L527.453672,31.2197425 L543.081929,31.2197425 L511.825415,64.5101821 L545.314537,112.454787 L529.526808,112.454787 L502.416567,73.9079617 L486.150422,90.9513926 L486.150422,112.454787 L473.073717,112.454787 L473.073717,0.955706402 Z M545.035461,71.8372645 C545.035461,46.8296137 560.663718,30.2640361 583.627687,30.2640361 C605.953769,30.2640361 621.582026,44.7589165 622.219914,68.8108609 C622.219914,70.5629893 622.060442,72.4744021 621.90097,74.3858149 L558.750054,74.3858149 L558.750054,75.5008057 C559.22847,91.2699614 569.275207,101.782732 584.425048,101.782732 C595.907032,101.782732 604.837465,95.7299246 607.548489,85.2171541 L620.784666,85.2171541 C617.595226,101.464163 604.199577,113.410493 585.38188,113.410493 C560.982662,113.410493 545.035461,96.685631 545.035461,71.8372645 Z M559.547414,63.5544757 L608.664793,63.5544757 C607.389017,49.5374485 597.34228,41.7325129 583.787159,41.7325129 C571.826759,41.7325129 560.82319,50.3338705 559.547414,63.5544757 Z M671.855577,31.2197425 L675.523433,31.2197425 L675.523433,43.9624945 L668.985081,43.9624945 C651.921576,43.9624945 647.296887,58.1388061 647.296887,71.0408425 L647.296887,112.454787 L634.220183,112.454787 L634.220183,31.2197425 L645.542695,31.2197425 L647.296887,43.4846413 C651.124216,37.2725497 657.343624,31.2197425 671.855577,31.2197425 Z" id="0xTracker" fill="#FFFFFF"></path>
        </g>
        <g id="Icon" transform="translate(5.000000, 6.000000)">
            <g id="Outer" transform="translate(0.000000, 0.244821)" stroke="#6A6586" stroke-width="12">
                <polygon id="Stroke-1" points="0 57.7006478 0 172.037736 99.4994505 229.642681 198.5625 172.037736 198.5625 57.7006478 99.4994505 0.095702761"></polygon>
                <polyline id="Stroke-3" points="0 57.7006478 99.4994505 110.06878 198.5625 57.7006478"></polyline>
                <polygon id="Stroke-5" stroke-linejoin="round" points="0 172.037736 198.5625 172.037736 99.4994505 0.095702761"></polygon>
                <line x1="99.484962" y1="172.037736" x2="99.501462" y2="229.642681" id="Stroke-7"></line>
            </g>
            <g id="Circle" transform="translate(60.000000, 187.244821)">
                <circle id="Oval" fill="#CCC9DB" cx="39.7578125" cy="40.0705378" r="19"></circle>
                <circle id="Oval" fill="#FFFFFF" opacity="0.168359375" cx="39.7578125" cy="40.0705378" r="39.2441406"></circle>
            </g>
            <g id="Diamond" transform="translate(50.622527, 0.340524)" stroke="#CCC9DB" stroke-width="12">
                <polygon id="Stroke-9" stroke-linejoin="round" points="48.8769231 -1.42108547e-14 0.0951354396 84.2982911 48.8769231 171.942033 97.4448742 84.2982911"></polygon>
                <polyline id="Stroke-12" points="-3.97903932e-13 83.789011 48.8769231 109.973077 97.3174451 83.789011"></polyline>
                <polyline id="Stroke-12" transform="translate(48.658723, 73.881044) rotate(-180.000000) translate(-48.658723, -73.881044) " points="5.54223334e-13 60.789011 48.8769231 86.9730769 97.3174451 60.789011"></polyline>
                <line x1="48.8769231" y1="-4.26325641e-14" x2="48.8769231" y2="171.942033" id="Stroke-13"></line>
            </g>
        </g>
    </g>
</svg>