<?xml version="1.0" encoding="UTF-8"?>
<svg width="966px" height="273px" viewBox="0 0 966 273" version="1.1" xmlns="http://www.w3.org/2000/svg" xmlns:xlink="http://www.w3.org/1999/xlink">
    <!-- Generator: Sketch 60.1 (88133) - https://sketch.com -->
    <title>Logo Grayscale</title>
    <desc>Created with Sketch.</desc>
    <g id="Logo-Grayscale" stroke="none" stroke-width="1" fill="none" fill-rule="evenodd">
        <g id="Group" transform="translate(290.000000, 39.000000)">
            <path d="M23.052,183 L23.052,140.84 L38.488,140.84 L38.488,135.4 L1.7,135.4 L1.7,140.84 L17.136,140.84 L17.136,183 L23.052,183 Z M49.572,183 L49.572,165.66 C49.572,161.761333 50.5126667,158.678667 52.394,156.412 C54.2753333,154.145333 56.8253333,153.012 60.044,153.012 C63.0813333,153.012 65.416,153.952667 67.048,155.834 C68.68,157.715333 69.496,160.446667 69.496,164.028 L69.496,164.028 L69.496,183 L75.072,183 L75.072,163.688 C75.072,158.248 73.78,154.258667 71.196,151.72 C68.612,149.181333 65.212,147.912 60.996,147.912 C58.276,147.912 55.9753333,148.478667 54.094,149.612 C52.2126667,150.745333 50.7053333,152.218667 49.572,154.032 L49.572,154.032 L49.572,135.4 L43.996,135.4 L43.996,183 L49.572,183 Z M98.192,183.408 C102.136,183.408 105.468,182.286 108.188,180.042 C110.908,177.798 112.608,174.908 113.288,171.372 L113.288,171.372 L107.644,171.372 C107.054667,173.593333 105.887333,175.327333 104.142,176.574 C102.396667,177.820667 100.277333,178.444 97.784,178.444 C94.5653333,178.444 91.9586667,177.424 89.964,175.384 C87.9693333,173.344 86.9266667,170.624 86.836,167.224 L86.836,167.224 L86.836,166.748 L113.764,166.748 C113.854667,165.66 113.9,164.866667 113.9,164.368 C113.809333,161.013333 113.061333,158.089333 111.656,155.596 C110.250667,153.102667 108.324,151.198667 105.876,149.884 C103.428,148.569333 100.617333,147.912 97.444,147.912 C94.2253333,147.912 91.3693333,148.648667 88.876,150.122 C86.3826667,151.595333 84.4446667,153.669333 83.062,156.344 C81.6793333,159.018667 80.988,162.124 80.988,165.66 C80.988,169.150667 81.702,172.244667 83.13,174.942 C84.558,177.639333 86.564,179.724667 89.148,181.198 C91.732,182.671333 94.7466667,183.408 98.192,183.408 Z M108.12,162.124 L87.176,162.124 C87.448,159.358667 88.5813333,157.114667 90.576,155.392 C92.5706667,153.669333 94.8826667,152.808 97.512,152.808 C100.458667,152.808 102.895333,153.624 104.822,155.256 C106.748667,156.888 107.848,159.177333 108.12,162.124 L108.12,162.124 Z M155.584,183.408 C159.12,183.408 162.248,182.467333 164.968,180.586 C167.688,178.704667 169.807333,176.018667 171.326,172.528 C172.844667,169.037333 173.604,164.957333 173.604,160.288 L173.604,160.288 L173.604,158.112 C173.604,153.624 172.844667,149.634667 171.326,146.144 C169.807333,142.653333 167.676667,139.922 164.934,137.95 C162.191333,135.978 159.074667,134.992 155.584,134.992 C152.048,134.992 148.908667,135.978 146.166,137.95 C143.423333,139.922 141.292667,142.653333 139.774,146.144 C138.255333,149.634667 137.496,153.624 137.496,158.112 L137.496,158.112 L137.496,160.288 C137.496,164.957333 138.255333,169.037333 139.774,172.528 C141.292667,176.018667 143.412,178.704667 146.132,180.586 C148.852,182.467333 152.002667,183.408 155.584,183.408 Z M155.584,178.172 C153.136,178.172 150.982667,177.446667 149.124,175.996 C147.265333,174.545333 145.826,172.46 144.806,169.74 C143.786,167.02 143.276,163.801333 143.276,160.084 L143.276,160.084 L143.276,158.316 C143.276,154.598667 143.786,151.38 144.806,148.66 C145.826,145.94 147.265333,143.854667 149.124,142.404 C150.982667,140.953333 153.136,140.228 155.584,140.228 C158.032,140.228 160.174,140.953333 162.01,142.404 C163.846,143.854667 165.274,145.94 166.294,148.66 C167.314,151.38 167.824,154.598667 167.824,158.316 L167.824,158.316 L167.824,160.084 C167.824,163.801333 167.314,167.02 166.294,169.74 C165.274,172.46 163.846,174.545333 162.01,175.996 C160.174,177.446667 158.032,178.172 155.584,178.172 Z M183.532,183 L193.732,169.06 L203.932,183 L210.596,183 L197.336,165.184 L209.712,148.32 L203.524,148.32 L194.14,161.172 L184.892,148.32 L178.228,148.32 L190.536,165.184 L177.344,183 L183.532,183 Z M252.008,183 L252.008,140.84 L267.444,140.84 L267.444,135.4 L230.656,135.4 L230.656,140.84 L246.092,140.84 L246.092,183 L252.008,183 Z M275.06,183 L275.06,165.32 C275.06,162.056 275.774,159.313333 277.202,157.092 C278.63,154.870667 280.998667,153.76 284.308,153.76 L284.308,153.76 L287.096,153.76 L287.096,148.32 L285.532,148.32 C282.721333,148.32 280.522667,148.796 278.936,149.748 C277.349333,150.7 276.057333,151.969333 275.06,153.556 L275.06,153.556 L274.312,148.32 L269.484,148.32 L269.484,183 L275.06,183 Z M302.056,183.408 C307.133333,183.408 311.009333,181.481333 313.684,177.628 C313.729333,179.396 314.228,180.733333 315.18,181.64 C316.132,182.546667 317.718667,183 319.94,183 L319.94,183 L323,183 L323,177.9 L321.3,177.9 C319.758667,177.9 318.988,177.061333 318.988,175.384 L318.988,175.384 L318.988,160.424 C318.988,156.389333 317.775333,153.295333 315.35,151.142 C312.924667,148.988667 309.490667,147.912 305.048,147.912 C300.877333,147.912 297.488667,148.864 294.882,150.768 C292.275333,152.672 290.768,155.324 290.36,158.724 L290.36,158.724 L295.936,158.724 C296.298667,156.956 297.262,155.539333 298.826,154.474 C300.39,153.408667 302.373333,152.876 304.776,152.876 C307.496,152.876 309.615333,153.510667 311.134,154.78 C312.652667,156.049333 313.412,157.817333 313.412,160.084 L313.412,160.084 L313.412,162.464 L303.212,162.464 C298.678667,162.464 295.222,163.393333 292.842,165.252 C290.462,167.110667 289.272,169.785333 289.272,173.276 C289.272,176.404 290.439333,178.874667 292.774,180.688 C295.108667,182.501333 298.202667,183.408 302.056,183.408 Z M302.464,178.648 C300.152,178.648 298.316,178.126667 296.956,177.084 C295.596,176.041333 294.916,174.658667 294.916,172.936 C294.916,169.082667 297.5,167.156 302.668,167.156 L302.668,167.156 L313.412,167.156 L313.412,168.856 C313.412,171.802667 312.437333,174.171333 310.488,175.962 C308.538667,177.752667 305.864,178.648 302.464,178.648 Z M342.72,183.408 C347.752,183.408 351.718667,181.413333 354.62,177.424 L354.62,177.424 L355.368,183 L360.196,183 L360.196,135.4 L354.62,135.4 L354.62,153.624 C353.486667,151.856 351.922667,150.462 349.928,149.442 C347.933333,148.422 345.530667,147.912 342.72,147.912 C339.546667,147.912 336.690667,148.66 334.152,150.156 C331.613333,151.652 329.63,153.737333 328.202,156.412 C326.774,159.086667 326.06,162.169333 326.06,165.66 C326.06,169.332 326.774,172.505333 328.202,175.18 C329.63,177.854667 331.602,179.894667 334.118,181.3 C336.634,182.705333 339.501333,183.408 342.72,183.408 Z M343.264,178.444 C339.818667,178.444 337.042,177.254 334.934,174.874 C332.826,172.494 331.772,169.422667 331.772,165.66 C331.772,161.897333 332.826,158.826 334.934,156.446 C337.042,154.066 339.818667,152.876 343.264,152.876 C345.485333,152.876 347.468667,153.42 349.214,154.508 C350.959333,155.596 352.308,157.126 353.26,159.098 C354.212,161.07 354.688,163.302667 354.688,165.796 C354.688,168.244 354.212,170.431333 353.26,172.358 C352.308,174.284667 350.959333,175.780667 349.214,176.846 C347.468667,177.911333 345.485333,178.444 343.264,178.444 Z M383.792,183.408 C387.736,183.408 391.068,182.286 393.788,180.042 C396.508,177.798 398.208,174.908 398.888,171.372 L398.888,171.372 L393.244,171.372 C392.654667,173.593333 391.487333,175.327333 389.742,176.574 C387.996667,177.820667 385.877333,178.444 383.384,178.444 C380.165333,178.444 377.558667,177.424 375.564,175.384 C373.569333,173.344 372.526667,170.624 372.436,167.224 L372.436,167.224 L372.436,166.748 L399.364,166.748 C399.454667,165.66 399.5,164.866667 399.5,164.368 C399.409333,161.013333 398.661333,158.089333 397.256,155.596 C395.850667,153.102667 393.924,151.198667 391.476,149.884 C389.028,148.569333 386.217333,147.912 383.044,147.912 C379.825333,147.912 376.969333,148.648667 374.476,150.122 C371.982667,151.595333 370.044667,153.669333 368.662,156.344 C367.279333,159.018667 366.588,162.124 366.588,165.66 C366.588,169.150667 367.302,172.244667 368.73,174.942 C370.158,177.639333 372.164,179.724667 374.748,181.198 C377.332,182.671333 380.346667,183.408 383.792,183.408 Z M393.72,162.124 L372.776,162.124 C373.048,159.358667 374.181333,157.114667 376.176,155.392 C378.170667,153.669333 380.482667,152.808 383.112,152.808 C386.058667,152.808 388.495333,153.624 390.422,155.256 C392.348667,156.888 393.448,159.177333 393.72,162.124 L393.72,162.124 Z M455.736,183 L455.736,177.56 L430.44,177.56 L430.44,161.512 L450.772,161.512 L450.772,156.072 L430.44,156.072 L430.44,140.84 L454.852,140.84 L454.852,135.4 L424.524,135.4 L424.524,183 L455.736,183 Z M464.508,183 L474.708,169.06 L484.908,183 L491.572,183 L478.312,165.184 L490.688,148.32 L484.5,148.32 L475.116,161.172 L465.868,148.32 L459.204,148.32 L471.512,165.184 L458.32,183 L464.508,183 Z M501.5,196.6 L501.5,177.696 C502.633333,179.464 504.197333,180.858 506.192,181.878 C508.186667,182.898 510.589333,183.408 513.4,183.408 C516.573333,183.408 519.429333,182.66 521.968,181.164 C524.506667,179.668 526.49,177.582667 527.918,174.908 C529.346,172.233333 530.06,169.150667 530.06,165.66 C530.06,161.988 529.346,158.814667 527.918,156.14 C526.49,153.465333 524.518,151.425333 522.002,150.02 C519.486,148.614667 516.618667,147.912 513.4,147.912 C508.368,147.912 504.401333,149.906667 501.5,153.896 L501.5,153.896 L500.752,148.32 L495.924,148.32 L495.924,196.6 L501.5,196.6 Z M512.856,178.444 C510.634667,178.444 508.651333,177.9 506.906,176.812 C505.160667,175.724 503.812,174.194 502.86,172.222 C501.908,170.25 501.432,168.017333 501.432,165.524 C501.432,163.076 501.908,160.888667 502.86,158.962 C503.812,157.035333 505.160667,155.539333 506.906,154.474 C508.651333,153.408667 510.634667,152.876 512.856,152.876 C516.301333,152.876 519.078,154.066 521.186,156.446 C523.294,158.826 524.348,161.897333 524.348,165.66 C524.348,169.422667 523.294,172.494 521.186,174.874 C519.078,177.254 516.301333,178.444 512.856,178.444 Z M542.028,183 L542.028,135.4 L536.452,135.4 L536.452,183 L542.028,183 Z M565.624,183.408 C568.978667,183.408 571.959333,182.66 574.566,181.164 C577.172667,179.668 579.201333,177.582667 580.652,174.908 C582.102667,172.233333 582.828,169.150667 582.828,165.66 C582.828,162.169333 582.102667,159.086667 580.652,156.412 C579.201333,153.737333 577.172667,151.652 574.566,150.156 C571.959333,148.66 568.978667,147.912 565.624,147.912 C562.269333,147.912 559.288667,148.66 556.682,150.156 C554.075333,151.652 552.046667,153.737333 550.596,156.412 C549.145333,159.086667 548.42,162.169333 548.42,165.66 C548.42,169.150667 549.145333,172.233333 550.596,174.908 C552.046667,177.582667 554.075333,179.668 556.682,181.164 C559.288667,182.66 562.269333,183.408 565.624,183.408 Z M565.624,178.444 C563.357333,178.444 561.351333,177.9 559.606,176.812 C557.860667,175.724 556.512,174.205333 555.56,172.256 C554.608,170.306667 554.132,168.108 554.132,165.66 C554.132,163.212 554.608,161.013333 555.56,159.064 C556.512,157.114667 557.860667,155.596 559.606,154.508 C561.351333,153.42 563.357333,152.876 565.624,152.876 C567.890667,152.876 569.896667,153.42 571.642,154.508 C573.387333,155.596 574.736,157.114667 575.688,159.064 C576.64,161.013333 577.116,163.212 577.116,165.66 C577.116,168.108 576.64,170.306667 575.688,172.256 C574.736,174.205333 573.387333,175.724 571.642,176.812 C569.896667,177.9 567.890667,178.444 565.624,178.444 Z M594.796,183 L594.796,165.32 C594.796,162.056 595.51,159.313333 596.938,157.092 C598.366,154.870667 600.734667,153.76 604.044,153.76 L604.044,153.76 L606.832,153.76 L606.832,148.32 L605.268,148.32 C602.457333,148.32 600.258667,148.796 598.672,149.748 C597.085333,150.7 595.793333,151.969333 594.796,153.556 L594.796,153.556 L594.048,148.32 L589.22,148.32 L589.22,183 L594.796,183 Z M625.94,183.408 C629.884,183.408 633.216,182.286 635.936,180.042 C638.656,177.798 640.356,174.908 641.036,171.372 L641.036,171.372 L635.392,171.372 C634.802667,173.593333 633.635333,175.327333 631.89,176.574 C630.144667,177.820667 628.025333,178.444 625.532,178.444 C622.313333,178.444 619.706667,177.424 617.712,175.384 C615.717333,173.344 614.674667,170.624 614.584,167.224 L614.584,167.224 L614.584,166.748 L641.512,166.748 C641.602667,165.66 641.648,164.866667 641.648,164.368 C641.557333,161.013333 640.809333,158.089333 639.404,155.596 C637.998667,153.102667 636.072,151.198667 633.624,149.884 C631.176,148.569333 628.365333,147.912 625.192,147.912 C621.973333,147.912 619.117333,148.648667 616.624,150.122 C614.130667,151.595333 612.192667,153.669333 610.81,156.344 C609.427333,159.018667 608.736,162.124 608.736,165.66 C608.736,169.150667 609.45,172.244667 610.878,174.942 C612.306,177.639333 614.312,179.724667 616.896,181.198 C619.48,182.671333 622.494667,183.408 625.94,183.408 Z M635.868,162.124 L614.924,162.124 C615.196,159.358667 616.329333,157.114667 618.324,155.392 C620.318667,153.669333 622.630667,152.808 625.26,152.808 C628.206667,152.808 630.643333,153.624 632.57,155.256 C634.496667,156.888 635.596,159.177333 635.868,162.124 L635.868,162.124 Z M653.616,183 L653.616,165.32 C653.616,162.056 654.33,159.313333 655.758,157.092 C657.186,154.870667 659.554667,153.76 662.864,153.76 L662.864,153.76 L665.652,153.76 L665.652,148.32 L664.088,148.32 C661.277333,148.32 659.078667,148.796 657.492,149.748 C655.905333,150.7 654.613333,151.969333 653.616,153.556 L653.616,153.556 L652.868,148.32 L648.04,148.32 L648.04,183 L653.616,183 Z" id="The0xTradeExplorer" stroke="#7F7A97" stroke-width="1.5" fill="#7F7A97" fill-rule="nonzero"></path>
            <path d="M0,59.2537969 L0,54.1566961 C0,22.4591004 17.222977,9.9475983e-14 42.4195546,9.9475983e-14 C67.4566601,9.9475983e-14 84.6796371,22.4591004 84.6796371,54.1566961 L84.6796371,59.2537969 C84.6796371,92.5442366 67.4566601,113.410493 42.4195546,113.410493 C17.222977,113.410493 0,92.5442366 0,59.2537969 Z M71.1245163,54.6345493 C71.1245163,28.1933388 59.6425316,12.2648988 42.4195546,12.2648988 C25.0371055,12.2648988 13.5551208,28.1933388 13.5551208,54.6345493 L13.5551208,58.7759437 C13.5551208,85.2171541 25.0371055,101.145594 42.4195546,101.145594 C59.6425316,101.145594 71.1245163,85.2171541 71.1245163,58.7759437 L71.1245163,54.6345493 Z M121.398067,70.7222737 L92.5336336,31.2197425 L108.161891,31.2197425 L129.850084,61.3244941 L151.857221,31.2197425 L166.369174,31.2197425 L137.345268,70.7222737 L168.44231,112.454787 L152.814053,112.454787 L128.893252,79.8014845 L104.97245,112.454787 L90.4604975,112.454787 L121.398067,70.7222737 Z M170.714786,0.955706402 L256.989144,0.955706402 L256.989144,13.6984584 L220.788997,13.6984584 L220.788997,112.454787 L206.914933,112.454787 L206.914933,13.6984584 L170.714786,13.6984584 L170.714786,0.955706402 Z M296.418598,31.2197425 L300.086454,31.2197425 L300.086454,43.9624945 L293.548102,43.9624945 C276.484597,43.9624945 271.859909,58.1388061 271.859909,71.0408425 L271.859909,112.454787 L258.783204,112.454787 L258.783204,31.2197425 L270.105716,31.2197425 L271.859909,43.4846413 C275.687237,37.2725497 281.906645,31.2197425 296.418598,31.2197425 Z M377.310775,100.508457 L381.297575,100.508457 L381.297575,112.454787 L374.121335,112.454787 C363.277238,112.454787 359.609382,107.835539 359.44991,99.871319 C354.346806,107.198401 346.213733,113.410493 332.180196,113.410493 C314.319331,113.410493 302.199458,104.490567 302.199458,89.6771173 C302.199458,73.4301085 313.521971,64.3508977 334.89122,64.3508977 L358.812022,64.3508977 L358.812022,58.7759437 C358.812022,48.2631733 351.316837,41.8917973 338.559077,41.8917973 C327.077092,41.8917973 319.422435,47.3074669 317.827715,55.5902557 L304.751011,55.5902557 C306.664675,39.6618157 319.581907,30.2640361 339.196965,30.2640361 C359.928326,30.2640361 371.888727,40.6175221 371.888727,59.5723657 L371.888727,94.6149338 C371.888727,98.5970438 373.961863,100.508457 377.310775,100.508457 Z M358.812022,79.3236313 L358.812022,75.3415213 L333.615444,75.3415213 C321.973988,75.3415213 315.435635,79.6422001 315.435635,88.8806953 C315.435635,96.8449154 322.292932,102.260585 333.137028,102.260585 C349.403173,102.260585 358.812022,92.8628054 358.812022,79.3236313 Z M460.913976,84.4207321 C457.565064,102.260585 444.488359,113.410493 425.032774,113.410493 C401.271444,113.410493 385.483715,96.5263466 385.483715,71.6779801 C385.483715,46.8296137 401.590388,30.2640361 425.51119,30.2640361 C444.966775,30.2640361 457.724536,41.4139441 460.913976,58.9352281 L447.677799,58.9352281 C445.126247,48.5817421 436.674231,41.8917973 425.032774,41.8917973 C409.404517,41.8917973 398.879364,53.9974117 398.879364,71.6779801 C398.879364,89.3585485 409.404517,101.782732 425.032774,101.782732 C436.993175,101.782732 445.445191,95.092787 447.837271,84.4207321 L460.913976,84.4207321 Z M473.073717,0.955706402 L486.150422,0.955706402 L486.150422,74.8636681 L527.453672,31.2197425 L543.081929,31.2197425 L511.825415,64.5101821 L545.314537,112.454787 L529.526808,112.454787 L502.416567,73.9079617 L486.150422,90.9513926 L486.150422,112.454787 L473.073717,112.454787 L473.073717,0.955706402 Z M545.035461,71.8372645 C545.035461,46.8296137 560.663718,30.2640361 583.627687,30.2640361 C605.953769,30.2640361 621.582026,44.7589165 622.219914,68.8108609 C622.219914,70.5629893 622.060442,72.4744021 621.90097,74.3858149 L558.750054,74.3858149 L558.750054,75.5008057 C559.22847,91.2699614 569.275207,101.782732 584.425048,101.782732 C595.907032,101.782732 604.837465,95.7299246 607.548489,85.2171541 L620.784666,85.2171541 C617.595226,101.464163 604.199577,113.410493 585.38188,113.410493 C560.982662,113.410493 545.035461,96.685631 545.035461,71.8372645 Z M559.547414,63.5544757 L608.664793,63.5544757 C607.389017,49.5374485 597.34228,41.7325129 583.787159,41.7325129 C571.826759,41.7325129 560.82319,50.3338705 559.547414,63.5544757 Z M671.855577,31.2197425 L675.523433,31.2197425 L675.523433,43.9624945 L668.985081,43.9624945 C651.921576,43.9624945 647.296887,58.1388061 647.296887,71.0408425 L647.296887,112.454787 L634.220183,112.454787 L634.220183,31.2197425 L645.542695,31.2197425 L647.296887,43.4846413 C651.124216,37.2725497 657.343624,31.2197425 671.855577,31.2197425 Z" id="0xTracker" fill="#FFFFFF"></path>
        </g>
        <g id="Icon" transform="translate(5.000000, 6.000000)">
            <g id="Outer" transform="translate(0.000000, 0.244821)" stroke="#6A6586" stroke-width="12">
                <polygon id="Stroke-1" points="0 57.7006478 0 172.037736 99.4994505 229.642681 198.5625 172.037736 198.5625 57.7006478 99.4994505 0.095702761"></polygon>
                <polyline id="Stroke-3" points="0 57.7006478 99.4994505 110.06878 198.5625 57.7006478"></polyline>
                <polygon id="Stroke-5" stroke-linejoin="round" points="0 172.037736 198.5625 172.037736 99.4994505 0.095702761"></polygon>
                <line x1="99.484962" y1="172.037736" x2="99.501462" y2="229.642681" id="Stroke-7"></line>
            </g>
            <g id="Circle" transform="translate(60.000000, 187.244821)">
                <circle id="Oval" fill="#CCC9DB" cx="39.7578125" cy="40.0705378" r="19"></circle>
                <circle id="Oval" fill="#FFFFFF" opacity="0.168359375" cx="39.7578125" cy="40.0705378" r="39.2441406"></circle>
            </g>
            <g id="Diamond" transform="translate(50.622527, 0.340524)" stroke="#CCC9DB" stroke-width="12">
                <polygon id="Stroke-9" stroke-linejoin="round" points="48.8769231 -1.42108547e-14 0.0951354396 84.2982911 48.8769231 171.942033 97.4448742 84.2982911"></polygon>
                <polyline id="Stroke-12" points="-3.97903932e-13 83.789011 48.8769231 109.973077 97.3174451 83.789011"></polyline>
                <polyline id="Stroke-12" transform="translate(48.658723, 73.881044) rotate(-180.000000) translate(-48.658723, -73.881044) " points="5.54223334e-13 60.789011 48.8769231 86.9730769 97.3174451 60.789011"></polyline>
                <line x1="48.8769231" y1="-4.26325641e-14" x2="48.8769231" y2="171.942033" id="Stroke-13"></line>
            </g>
        </g>
    </g>
</svg>