<?xml version="1.0" encoding="UTF-8"?>
<svg width="966px" height="273px" viewBox="0 0 966 273" version="1.1" xmlns="http://www.w3.org/2000/svg" xmlns:xlink="http://www.w3.org/1999/xlink">
    <g id="Page-1" stroke="none" stroke-width="1" fill="none" fill-rule="evenodd">
        <g id="Logo-Grayscale">
            <g id="Logo" transform="translate(5.000000, 6.000000)">
                <path d="M285,133.253797 L285,128.156696 C285,96.4591004 302.222977,74 327.419555,74 C352.45666,74 369.679637,96.4591004 369.679637,128.156696 L369.679637,133.253797 C369.679637,166.544237 352.45666,187.410493 327.419555,187.410493 C302.222977,187.410493 285,166.544237 285,133.253797 Z M356.124516,128.634549 C356.124516,102.193339 344.642532,86.2648988 327.419555,86.2648988 C310.037106,86.2648988 298.555121,102.193339 298.555121,128.634549 L298.555121,132.775944 C298.555121,159.217154 310.037106,175.145594 327.419555,175.145594 C344.642532,175.145594 356.124516,159.217154 356.124516,132.775944 L356.124516,128.634549 Z M406.398067,144.722274 L377.533634,105.219742 L393.161891,105.219742 L414.850084,135.324494 L436.857221,105.219742 L451.369174,105.219742 L422.345268,144.722274 L453.44231,186.454787 L437.814053,186.454787 L413.893252,153.801485 L389.97245,186.454787 L375.460498,186.454787 L406.398067,144.722274 Z M455.714786,74.9557064 L541.989144,74.9557064 L541.989144,87.6984584 L505.788997,87.6984584 L505.788997,186.454787 L491.914933,186.454787 L491.914933,87.6984584 L455.714786,87.6984584 L455.714786,74.9557064 Z M581.418598,105.219742 L585.086454,105.219742 L585.086454,117.962494 L578.548102,117.962494 C561.484597,117.962494 556.859909,132.138806 556.859909,145.040843 L556.859909,186.454787 L543.783204,186.454787 L543.783204,105.219742 L555.105716,105.219742 L556.859909,117.484641 C560.687237,111.27255 566.906645,105.219742 581.418598,105.219742 Z M662.310775,174.508457 L666.297575,174.508457 L666.297575,186.454787 L659.121335,186.454787 C648.277238,186.454787 644.609382,181.835539 644.44991,173.871319 C639.346806,181.198401 631.213733,187.410493 617.180196,187.410493 C599.319331,187.410493 587.199458,178.490567 587.199458,163.677117 C587.199458,147.430109 598.521971,138.350898 619.89122,138.350898 L643.812022,138.350898 L643.812022,132.775944 C643.812022,122.263173 636.316837,115.891797 623.559077,115.891797 C612.077092,115.891797 604.422435,121.307467 602.827715,129.590256 L589.751011,129.590256 C591.664675,113.661816 604.581907,104.264036 624.196965,104.264036 C644.928326,104.264036 656.888727,114.617522 656.888727,133.572366 L656.888727,168.614934 C656.888727,172.597044 658.961863,174.508457 662.310775,174.508457 Z M643.812022,153.323631 L643.812022,149.341521 L618.615444,149.341521 C606.973988,149.341521 600.435635,153.6422 600.435635,162.880695 C600.435635,170.844915 607.292932,176.260585 618.137028,176.260585 C634.403173,176.260585 643.812022,166.862805 643.812022,153.323631 Z M745.913976,158.420732 C742.565064,176.260585 729.488359,187.410493 710.032774,187.410493 C686.271444,187.410493 670.483715,170.526347 670.483715,145.67798 C670.483715,120.829614 686.590388,104.264036 710.51119,104.264036 C729.966775,104.264036 742.724536,115.413944 745.913976,132.935228 L732.677799,132.935228 C730.126247,122.581742 721.674231,115.891797 710.032774,115.891797 C694.404517,115.891797 683.879364,127.997412 683.879364,145.67798 C683.879364,163.358549 694.404517,175.782732 710.032774,175.782732 C721.993175,175.782732 730.445191,169.092787 732.837271,158.420732 L745.913976,158.420732 Z M758.073717,74.9557064 L771.150422,74.9557064 L771.150422,148.863668 L812.453672,105.219742 L828.081929,105.219742 L796.825415,138.510182 L830.314537,186.454787 L814.526808,186.454787 L787.416567,147.907962 L771.150422,164.951393 L771.150422,186.454787 L758.073717,186.454787 L758.073717,74.9557064 Z M830.035461,145.837265 C830.035461,120.829614 845.663718,104.264036 868.627687,104.264036 C890.953769,104.264036 906.582026,118.758916 907.219914,142.810861 C907.219914,144.562989 907.060442,146.474402 906.90097,148.385815 L843.750054,148.385815 L843.750054,149.500806 C844.22847,165.269961 854.275207,175.782732 869.425048,175.782732 C880.907032,175.782732 889.837465,169.729925 892.548489,159.217154 L905.784666,159.217154 C902.595226,175.464163 889.199577,187.410493 870.38188,187.410493 C845.982662,187.410493 830.035461,170.685631 830.035461,145.837265 Z M844.547414,137.554476 L893.664793,137.554476 C892.389017,123.537448 882.34228,115.732513 868.787159,115.732513 C856.826759,115.732513 845.82319,124.33387 844.547414,137.554476 Z M956.855577,105.219742 L960.523433,105.219742 L960.523433,117.962494 L953.985081,117.962494 C936.921576,117.962494 932.296887,132.138806 932.296887,145.040843 L932.296887,186.454787 L919.220183,186.454787 L919.220183,105.219742 L930.542695,105.219742 L932.296887,117.484641 C936.124216,111.27255 942.343624,105.219742 956.855577,105.219742 Z" id="0xTracker" fill="#FFFFFF"></path>
                <g id="Icon">
                    <g id="Outer" transform="translate(0.000000, 0.244821)" stroke="#6A6586" stroke-width="12">
                        <polygon id="Stroke-1" points="0 57.7006478 0 172.037736 99.4994505 229.642681 198.5625 172.037736 198.5625 57.7006478 99.4994505 0.095702761"></polygon>
                        <polyline id="Stroke-3" points="0 57.7006478 99.4994505 110.06878 198.5625 57.7006478"></polyline>
                        <polygon id="Stroke-5" stroke-linejoin="round" points="0 172.037736 198.5625 172.037736 99.4994505 0.095702761"></polygon>
                        <line x1="99.484962" y1="172.037736" x2="99.501462" y2="229.642681" id="Stroke-7"></line>
                    </g>
                    <g id="Circle" transform="translate(60.000000, 187.244821)">
                        <circle id="Oval" fill="#CCC9DB" cx="39.7578125" cy="40.0705378" r="19"></circle>
                        <circle id="Oval" fill="#FFFFFF" opacity="0.168359375" cx="39.7578125" cy="40.0705378" r="39.2441406"></circle>
                    </g>
                    <g id="Diamond" transform="translate(50.622527, 0.340524)" stroke="#CCC9DB" stroke-width="12">
                        <polygon id="Stroke-9" stroke-linejoin="round" points="48.8769231 -1.42108547e-14 0.0951354396 84.2982911 48.8769231 171.942033 97.4448742 84.2982911"></polygon>
                        <polyline id="Stroke-12" points="-3.97903932e-13 83.789011 48.8769231 109.973077 97.3174451 83.789011"></polyline>
                        <polyline id="Stroke-12" transform="translate(48.658723, 73.881044) rotate(-180.000000) translate(-48.658723, -73.881044) " points="5.54223334e-13 60.789011 48.8769231 86.9730769 97.3174451 60.789011"></polyline>
                        <line x1="48.8769231" y1="-4.26325641e-14" x2="48.8769231" y2="171.942033" id="Stroke-13"></line>
                    </g>
                </g>
            </g>
        </g>
    </g>
</svg>
