<?xml version="1.0" encoding="UTF-8"?>
<svg width="969px" height="273px" viewBox="0 0 969 273" version="1.1" xmlns="http://www.w3.org/2000/svg" xmlns:xlink="http://www.w3.org/1999/xlink">
    <!-- Generator: Sketch 52.4 (67378) - http://www.bohemiancoding.com/sketch -->
    <title>Logo_Light</title>
    <desc>Created with Sketch.</desc>
    <g id="Page-1" stroke="none" stroke-width="1" fill="none" fill-rule="evenodd">
        <g id="Logo-Light" transform="translate(-221.000000, -391.000000)">
            <g id="Logo_Light" transform="translate(225.500000, 396.000000)">
                <path d="M286,137.52 L286,132.4 C286,100.56 303.28,78 328.56,78 C353.68,78 370.96,100.56 370.96,132.4 L370.96,137.52 C370.96,170.96 353.68,191.92 328.56,191.92 C303.28,191.92 286,170.96 286,137.52 Z M357.36,132.88 C357.36,106.32 345.84,90.32 328.56,90.32 C311.12,90.32 299.6,106.32 299.6,132.88 L299.6,137.04 C299.6,163.6 311.12,179.6 328.56,179.6 C345.84,179.6 357.36,163.6 357.36,137.04 L357.36,132.88 Z M407.8,149.04 L378.84,109.36 L394.52,109.36 L416.28,139.6 L438.36,109.36 L452.92,109.36 L423.8,149.04 L455,190.96 L439.32,190.96 L415.32,158.16 L391.32,190.96 L376.76,190.96 L407.8,149.04 Z M457.28,78.96 L543.84,78.96 L543.84,91.76 L507.52,91.76 L507.52,190.96 L493.6,190.96 L493.6,91.76 L457.28,91.76 L457.28,78.96 Z M583.4,109.36 L587.08,109.36 L587.08,122.16 L580.52,122.16 C563.4,122.16 558.76,136.4 558.76,149.36 L558.76,190.96 L545.64,190.96 L545.64,109.36 L557,109.36 L558.76,121.68 C562.6,115.44 568.84,109.36 583.4,109.36 Z M664.56,178.96 L668.56,178.96 L668.56,190.96 L661.36,190.96 C650.48,190.96 646.8,186.32 646.64,178.32 C641.52,185.68 633.36,191.92 619.28,191.92 C601.36,191.92 589.2,182.96 589.2,168.08 C589.2,151.76 600.56,142.64 622,142.64 L646,142.64 L646,137.04 C646,126.48 638.48,120.08 625.68,120.08 C614.16,120.08 606.48,125.52 604.88,133.84 L591.76,133.84 C593.68,117.84 606.64,108.4 626.32,108.4 C647.12,108.4 659.12,118.8 659.12,137.84 L659.12,173.04 C659.12,177.04 661.2,178.96 664.56,178.96 Z M646,157.68 L646,153.68 L620.72,153.68 C609.04,153.68 602.48,158 602.48,167.28 C602.48,175.28 609.36,180.72 620.24,180.72 C636.56,180.72 646,171.28 646,157.68 Z M748.44,162.8 C745.08,180.72 731.96,191.92 712.44,191.92 C688.6,191.92 672.76,174.96 672.76,150 C672.76,125.04 688.92,108.4 712.92,108.4 C732.44,108.4 745.24,119.6 748.44,137.2 L735.16,137.2 C732.6,126.8 724.12,120.08 712.44,120.08 C696.76,120.08 686.2,132.24 686.2,150 C686.2,167.76 696.76,180.24 712.44,180.24 C724.44,180.24 732.92,173.52 735.32,162.8 L748.44,162.8 Z M760.64,78.96 L773.76,78.96 L773.76,153.2 L815.2,109.36 L830.88,109.36 L799.52,142.8 L833.12,190.96 L817.28,190.96 L790.08,152.24 L773.76,169.36 L773.76,190.96 L760.64,190.96 L760.64,78.96 Z M832.84,150.16 C832.84,125.04 848.52,108.4 871.56,108.4 C893.96,108.4 909.64,122.96 910.28,147.12 C910.28,148.88 910.12,150.8 909.96,152.72 L846.6,152.72 L846.6,153.84 C847.08,169.68 857.16,180.24 872.36,180.24 C883.88,180.24 892.84,174.16 895.56,163.6 L908.84,163.6 C905.64,179.92 892.2,191.92 873.32,191.92 C848.84,191.92 832.84,175.12 832.84,150.16 Z M847.4,141.84 L896.68,141.84 C895.4,127.76 885.32,119.92 871.72,119.92 C859.72,119.92 848.68,128.56 847.4,141.84 Z M960.08,109.36 L963.76,109.36 L963.76,122.16 L957.2,122.16 C940.08,122.16 935.44,136.4 935.44,149.36 L935.44,190.96 L922.32,190.96 L922.32,109.36 L933.68,109.36 L935.44,121.68 C939.28,115.44 945.52,109.36 960.08,109.36 Z" id="0xTracker" fill="#FFFFFF"></path>
                <g id="Group" transform="translate(0.742188, 0.684641)">
                    <g id="Group-11" transform="translate(0.000000, 0.244821)">
                        <g id="Group-4" stroke="#2F2B7B" stroke-width="10">
                            <polygon id="Stroke-1" points="0 57.7006478 0 172.037736 99.4994505 229.642681 198.5625 172.037736 198.5625 57.7006478 99.4994505 0.095702761"></polygon>
                            <polyline id="Stroke-3" points="0 57.7006478 99.4994505 110.06878 198.5625 57.7006478"></polyline>
                            <polygon id="Stroke-5" stroke-linejoin="round" points="0 172.037736 198.5625 172.037736 99.4994505 0.095702761"></polygon>
                            <path d="M99.484962,172.037736 L99.501462,229.642681" id="Stroke-7"></path>
                        </g>
                        <circle id="Oval" fill="#2832E1" cx="99.7578125" cy="227.070538" r="19"></circle>
                        <circle id="Oval" fill="#2832E1" opacity="0.168359375" cx="99.7578125" cy="227.070538" r="39.2441406"></circle>
                        <polygon id="Stroke-9" stroke="#2832E1" stroke-width="10" stroke-linejoin="round" points="99.4994505 0.095702761 50.7176629 84.3939938 99.4994505 172.037736 148.067402 84.3939938"></polygon>
                    </g>
                    <polyline id="Stroke-12" stroke="#2832E1" stroke-width="10" points="50.6225275 84.1295348 99.4994505 110.313601 147.939973 84.1295348"></polyline>
                    <polyline id="Stroke-12" stroke="#2832E1" stroke-width="10" transform="translate(99.281250, 74.221568) rotate(-180.000000) translate(-99.281250, -74.221568) " points="50.6225275 61.1295348 99.4994505 87.3136007 147.939973 61.1295348"></polyline>
                    <path d="M99.4994505,0.340523777 L99.4994505,172.282557" id="Stroke-13" stroke="#2832E1" stroke-width="10"></path>
                </g>
            </g>
        </g>
    </g>
</svg>